<svg id="Layer_1" data-name="Layer 1" xmlns="http://www.w3.org/2000/svg" xmlns:xlink="http://www.w3.org/1999/xlink" viewBox="0 0 135.7 33">
  <defs>
    <style>
      .cls-1, .cls-2, .cls-3 {
        fill-rule: evenodd;
      }

      .cls-1 {
        fill: url(#linear-gradient);
      }

      .cls-2 {
        fill: #a3aae8;
      }

      .cls-3, .cls-4 {
        fill: #fff;
      }

      .cls-4 {
        fill-opacity: 0.95;
      }
    </style>
    <linearGradient id="linear-gradient" x1="1.11" y1="26.57" x2="31.73" y2="8.53" gradientTransform="matrix(1, 0, 0, -1, 0, 34)" gradientUnits="userSpaceOnUse">
      <stop offset="0" stop-color="#06f"/>
      <stop offset="0.15" stop-color="#00d1ff"/>
      <stop offset="0.32" stop-color="#72ff71"/>
      <stop offset="0.53" stop-color="#ffdf6b"/>
      <stop offset="0.71" stop-color="#ff9533"/>
      <stop offset="0.85" stop-color="#fa3535"/>
      <stop offset="1" stop-color="#fa35ab"/>
    </linearGradient>
  </defs>
  <path d="M30.36,16.5A13.86,13.86,0,1,1,16.5,2.64,13.86,13.86,0,0,1,30.36,16.5Z"/>
  <path class="cls-1" d="M33,16.5A16.5,16.5,0,1,1,16.5,0,16.5,16.5,0,0,1,33,16.5ZM16.5,30.36A13.86,13.86,0,1,0,2.64,16.5,13.87,13.87,0,0,0,16.5,30.36Z"/>
  <path class="cls-2" d="M23.6,11.35a7.59,7.59,0,0,0-2.68-.48c-3.66,0-6.63,2.53-6.63,5.66s3,5.67,6.63,5.67a7.65,7.65,0,0,0,2.61-.46,8.29,8.29,0,1,1,.07-10.39Z"/>
  <path class="cls-3" d="M17.52,8.06c-3.57-.29-6.29,2.57-6.29,2.57s2.9-.48,4.59.37A9.8,9.8,0,0,1,19,14.43h0a2.84,2.84,0,0,0,2.36,1.26,2.86,2.86,0,0,0,1.93-5h0A9.42,9.42,0,0,0,17.52,8.06Z"/>
  <path class="cls-3" d="M17.52,25c-3.57.28-6.29-2.58-6.29-2.58s2.9.48,4.59-.37A9.8,9.8,0,0,0,19,18.57h0a2.83,2.83,0,0,1,2.36-1.25,2.86,2.86,0,0,1,1.93,5h0A9.47,9.47,0,0,1,17.52,25Z"/>
  <path class="cls-4" d="M41.6,16.43a8.31,8.31,0,0,0,8.3,8.29,8.18,8.18,0,0,0,7.09-4H56a3.66,3.66,0,0,1-3.66,3c-4.26,0-8.73-5.53-8.73-10.12,0-2.65,1.52-4.45,3.84-4.45a7.9,7.9,0,0,1,5.11,2.43h4.07a8.3,8.3,0,0,0-15,4.88Z"/>
  <path class="cls-4" d="M57.74,20.62a3.94,3.94,0,0,0,7.74,1.13V24.6h4.31l-1.27-1.43V16c0-2.29-2-3.21-4.08-3.21a6.1,6.1,0,0,0-5.17,2.77H61a4.17,4.17,0,0,1,3.31,1.89,2.91,2.91,0,0,0-2.42-.89A4.09,4.09,0,0,0,57.74,20.62Zm4.55-5.06c.28-1.22.94-2.51,2.08-2.51.73,0,1.11.59,1.11,1.78V19.5A5.38,5.38,0,0,0,62.29,15.56Zm-1.73,3.82c0-1.34.7-2.6,1.94-2.6,1.71,0,2.93,2.18,2.93,3.86,0,1.29-.61,2.65-2,2.65C61.91,23.29,60.56,21.23,60.56,19.38Z"/>
  <path class="cls-4" d="M79.11,12.89c-3-.05-4,1.19-4.57,4.22V12.89l-4.31,1.43,1.27.84v8L70.23,24.6h5.58l-1.27-1.43V18.32c0-2.1,2-2.31,3.66-2.41Z"/>
  <path class="cls-4" d="M79.43,9.87l1.26.84V24.6H82L83.58,23a4.25,4.25,0,0,0,3.49,1.71c2.62,0,4.75-2.69,4.75-6s-2.13-6-4.75-6a4.18,4.18,0,0,0-3.33,1.53V8.44Zm4.31,13v-8.2a2.93,2.93,0,0,1,2.11-1.34c1.8,0,2.9,3,2.9,5.44s-1.1,5.43-2.9,5.43A2.94,2.94,0,0,1,83.74,22.85Z"/>
  <path class="cls-4" d="M95.21,11.93a1.74,1.74,0,1,0-1.73-1.73A1.73,1.73,0,0,0,95.21,11.93ZM92.49,24.6h5.58l-1.26-1.43V12.89L92.49,14.3l1.27.84v8Z"/>
  <path class="cls-4" d="M98.63,18.75c0,3.28,2.14,6,4.76,6a4.2,4.2,0,0,0,3.33-1.52v4.19l-1.27,1.43H111l-1.27-1.43V12.89H108.5l-1.67,1.52a4.27,4.27,0,0,0-3.44-1.64C100.77,12.77,98.63,15.47,98.63,18.75Zm3.07,0c0-2.46,1.11-5.44,2.91-5.44a3,3,0,0,1,2.11,1.34v8.2a3,3,0,0,1-2.11,1.33C102.81,24.18,101.7,21.21,101.7,18.75Z"/>
  <path class="cls-4" d="M118.23,12.89l1,1.43v8.15a2.62,2.62,0,0,1-1.85,1,2,2,0,0,1-2-2.11V12.89h-4.08l1,1.43v7a3.13,3.13,0,0,0,3.14,3.32,5.5,5.5,0,0,0,3.82-2L121,24.6h1.27V12.91Z"/>
  <path class="cls-4" d="M130.17,24.72c3.56,0,5.53-2.18,5.53-4.4,0-2.53-2-4.22-5.11-4.76h4.54a6,6,0,1,0-5,9.16Zm-1.24-11.53a2.92,2.92,0,0,1,2.64,2.18h-4.85C126.89,14,127.61,13.19,128.93,13.19Zm-2.23,2.37h2.13c3.4,0,6.58,1.71,6.58,4.38a3.37,3.37,0,0,1-3.3,3.42C128.74,23.36,126.37,19.33,126.7,15.56Z"/>
</svg>
